<svg width="21" height="15" viewBox="0 0 21 15" fill="none" xmlns="http://www.w3.org/2000/svg">
<path d="M0.983385 5.74185H1.07127H1.15916H20.0604C20.3021 5.74185 20.5 5.54397 20.5 5.30224C20.5 5.06051 20.3021 4.86264 20.0604 4.86264L2.03817 4.86281L5.95025 0.950734C6.12602 0.774963 6.12602 0.51113 5.95025 0.335381C5.77448 0.159609 5.51065 0.159609 5.3349 0.335381L0.675637 4.99464C0.499865 5.17041 0.499865 5.43425 0.675637 5.60999C0.763525 5.69788 0.87351 5.74173 0.983323 5.74173L0.983385 5.74185Z" fill="white"/>
<path d="M19.9287 9.25789H19.8408H0.939605C0.697874 9.25789 0.5 9.45576 0.5 9.6975C0.5 9.93923 0.697874 10.1371 0.939605 10.1371H18.9618L15.0497 14.0492C14.874 14.2249 14.874 14.4888 15.0497 14.6645C15.1376 14.7524 15.2476 14.7964 15.3574 14.7964C15.4672 14.7964 15.5772 14.7524 15.6651 14.6645L20.3244 10.0053C20.5002 9.8295 20.5002 9.56567 20.3244 9.38992C20.2146 9.2801 20.0607 9.23607 19.9288 9.258L19.9287 9.25789Z" fill="white"/>
</svg>
