<svg width="18" height="14" viewBox="0 0 18 14" fill="none" xmlns="http://www.w3.org/2000/svg">
<path d="M0.899987 0.699829C0.40285 0.699829 0 1.10269 0 1.59982C0 2.09695 0.402856 2.4998 0.899987 2.4998H17.1C17.5971 2.4998 18 2.09695 18 1.59982C18 1.10269 17.5971 0.699829 17.1 0.699829H0.899987ZM0.899987 6.10001C0.40285 6.10001 0 6.50286 0 6.99999C0 7.49712 0.402856 7.89998 0.899987 7.89998H17.1C17.5971 7.89998 18 7.49712 18 6.99999C18 6.50286 17.5971 6.10001 17.1 6.10001H0.899987ZM0.899987 11.5002C0.40285 11.5002 0 11.903 0 12.4002C0 12.8973 0.402856 13.3002 0.899987 13.3002H17.1C17.5971 13.3002 18 12.8973 18 12.4002C18 11.903 17.5971 11.5002 17.1 11.5002H0.899987Z" fill="white"/>
</svg>
