<svg width="19" height="20" viewBox="0 0 19 20" fill="none" xmlns="http://www.w3.org/2000/svg">
<path d="M17.0286 14.9901C14.2666 19.7741 8.14956 21.4131 3.36556 18.6511C2.07925 17.9103 0.97468 16.8915 0.132563 15.6691C0.0673071 15.5745 0.0246773 15.4661 0.0079669 15.3524C-0.00874353 15.2386 0.000912514 15.1226 0.036189 15.0132C0.0714655 14.9038 0.131418 14.8039 0.211417 14.7214C0.291415 14.6388 0.389318 14.5758 0.497563 14.5371C4.26456 13.1891 6.28256 11.6271 7.45356 9.39109C8.68556 7.03809 9.00456 4.46109 8.14256 0.928092C8.11477 0.814378 8.11397 0.695737 8.14025 0.581662C8.16652 0.467587 8.21913 0.361246 8.29387 0.271149C8.36862 0.181053 8.46341 0.109702 8.57067 0.0628081C8.67793 0.0159139 8.79467 -0.00522196 8.91156 0.00109176C10.4811 0.085576 12.0084 0.5403 13.3686 1.32809C18.1526 4.09009 19.7916 10.2071 17.0286 14.9901Z" fill="white"/>
</svg>
