<svg width="21" height="21" viewBox="0 0 21 21" fill="none" xmlns="http://www.w3.org/2000/svg">
<path d="M9.75 0H11.25V3.75H9.75V0ZM14.766 5.175L17.3955 2.5455L18.456 3.606L15.8265 6.2355L14.766 5.175ZM17.25 9.75H21V11.25H17.25V9.75ZM14.766 15.825L15.8265 14.7653L18.456 17.3948L17.3955 18.4552L14.766 15.825ZM9.75 17.25H11.25V21H9.75V17.25ZM2.5455 17.394L5.175 14.7645L6.2355 15.825L3.60675 18.4545L2.5455 17.394ZM0 9.75H3.75V11.25H0V9.75ZM2.54625 3.606L3.60675 2.5455L6.23625 5.175L5.175 6.2355L2.54625 3.606ZM10.5 6C9.60998 6 8.73995 6.26392 7.99993 6.75839C7.25991 7.25285 6.68314 7.95566 6.34254 8.77792C6.00195 9.60019 5.91283 10.505 6.08647 11.3779C6.2601 12.2508 6.68868 13.0526 7.31802 13.682C7.94736 14.3113 8.74918 14.7399 9.62209 14.9135C10.495 15.0872 11.3998 14.9981 12.2221 14.6575C13.0443 14.3169 13.7471 13.7401 14.2416 13.0001C14.7361 12.26 15 11.39 15 10.5C15 9.30653 14.5259 8.16193 13.682 7.31802C12.8381 6.47411 11.6935 6 10.5 6Z" fill="white"/>
</svg>
